HIERARCHY
ROOT Hips
{
	OFFSET 0.000000 71.427986 0.000000
	CHANNELS 6 Xposition Yposition Zposition Xrotation Yrotation Zrotation
	JOINT Pelvis
	{
		OFFSET 0.000000 0.000000 0.000000
		CHANNELS 3 Xrotation Yrotation Zrotation
		JOINT LeftUpLeg
		{
			OFFSET 6.797100 -2.508499 -1.318700
			CHANNELS 3 Xrotation Yrotation Zrotation
			JOINT LeftLeg
			{
				OFFSET 0.069008 -29.241863 0.690200
				CHANNELS 3 Xrotation Yrotation Zrotation
				JOINT LeftFoot
				{
					OFFSET -0.069008 -29.568123 -0.266800
					CHANNELS 3 Xrotation Yrotation Zrotation
					JOINT LeftToeBase
					{
						OFFSET 3.145500 -8.631000 16.059900
						CHANNELS 3 Xrotation Yrotation Zrotation
						End Site
						{
							OFFSET 0.000000 18.501587 0.000000
						}
					}
				}
			}
			JOINT Left_ShortSleeve
			{
				OFFSET 0.265923 -10.480953 1.153800
				CHANNELS 3 Xrotation Yrotation Zrotation
				End Site
				{
					OFFSET 1.725763 19.823879 0.000000
				}
			}
		}
		JOINT RightUpLeg
		{
			OFFSET -6.797100 -2.508499 -1.318700
			CHANNELS 3 Xrotation Yrotation Zrotation
			JOINT RightLeg
			{
				OFFSET -0.082453 -29.241932 0.688000
				CHANNELS 3 Xrotation Yrotation Zrotation
				JOINT RightFoot
				{
					OFFSET 0.082453 -29.568058 -0.264600
					CHANNELS 3 Xrotation Yrotation Zrotation
					JOINT RightToeBase
					{
						OFFSET -3.115300 -8.682800 16.113400
						CHANNELS 3 Xrotation Yrotation Zrotation
						End Site
						{
							OFFSET 0.000000 18.567114 0.000000
						}
					}
				}
			}
			JOINT Right_ShortSleeve
			{
				OFFSET -0.265923 -10.480953 1.153800
				CHANNELS 3 Xrotation Yrotation Zrotation
				End Site
				{
					OFFSET -1.725766 19.823910 0.000000
				}
			}
		}
	}
	JOINT Spine
	{
		OFFSET 0.000000 13.368103 0.470500
		CHANNELS 3 Xrotation Yrotation Zrotation
		JOINT Spine1
		{
			OFFSET 0.147000 13.837402 0.538800
			CHANNELS 3 Xrotation Yrotation Zrotation
			JOINT Spine2
			{
				OFFSET 0.168000 16.242897 -1.435500
				CHANNELS 3 Xrotation Yrotation Zrotation
				JOINT Neck
				{
					OFFSET 0.217200 18.631500 -1.679100
					CHANNELS 3 Xrotation Yrotation Zrotation
					JOINT Head
					{
						OFFSET 0.000000 6.599396 1.385900
						CHANNELS 3 Xrotation Yrotation Zrotation
						JOINT Hat
						{
							OFFSET -0.532200 27.220596 -10.096100
							CHANNELS 3 Xrotation Yrotation Zrotation
							End Site
							{
								OFFSET 0.000000 22.029861 0.000000
							}
						}
						JOINT HairD
						{
							OFFSET -10.777400 17.437393 -1.325900
							CHANNELS 3 Xrotation Yrotation Zrotation
							JOINT HairD1
							{
								OFFSET -3.290299 -11.051193 1.062200
								CHANNELS 3 Xrotation Yrotation Zrotation
								End Site
								{
									OFFSET 0.000000 11.579437 0.000000
								}
							}
						}
						JOINT HairB
						{
							OFFSET -10.777400 17.437393 1.467900
							CHANNELS 3 Xrotation Yrotation Zrotation
							JOINT HairB1
							{
								OFFSET -1.561200 -12.956299 3.590200
								CHANNELS 3 Xrotation Yrotation Zrotation
								End Site
								{
									OFFSET 0.000000 13.534866 0.000000
								}
							}
						}
						JOINT HairA
						{
							OFFSET 9.713100 17.437393 1.467900
							CHANNELS 3 Xrotation Yrotation Zrotation
							JOINT HairA1
							{
								OFFSET 1.561200 -12.956299 3.590200
								CHANNELS 3 Xrotation Yrotation Zrotation
								End Site
								{
									OFFSET 0.000000 13.534866 0.000000
								}
							}
						}
						JOINT HairC
						{
							OFFSET 9.713100 17.437393 -1.325900
							CHANNELS 3 Xrotation Yrotation Zrotation
							JOINT HairC1
							{
								OFFSET 3.290300 -11.051193 1.062200
								CHANNELS 3 Xrotation Yrotation Zrotation
								End Site
								{
									OFFSET 0.000000 11.579437 0.000000
								}
							}
						}
					}
				}
				JOINT LeftShoulder
				{
					OFFSET 5.101800 15.108002 -2.763700
					CHANNELS 3 Xrotation Yrotation Zrotation
					JOINT LeftArm
					{
						OFFSET 9.825497 2.506317 -1.597400
						CHANNELS 3 Xrotation Yrotation Zrotation
						JOINT LeftForeArm
						{
							OFFSET 21.966244 0.000000 0.000000
							CHANNELS 3 Xrotation Yrotation Zrotation
							JOINT LeftHand
							{
								OFFSET 33.879036 0.000000 0.000000
								CHANNELS 3 Xrotation Yrotation Zrotation
								JOINT LeftHandThumb1
								{
									OFFSET 6.715286 -2.359680 3.363841
									CHANNELS 3 Xrotation Yrotation Zrotation
									JOINT LeftHandThumb2
									{
										OFFSET 2.507072 -1.447464 1.447461
										CHANNELS 3 Xrotation Yrotation Zrotation
										JOINT LeftHandThumb3
										{
											OFFSET 2.898338 -1.673355 1.673357
											CHANNELS 3 Xrotation Yrotation Zrotation
											End Site
											{
												OFFSET -0.295959 3.727692 -0.131651
											}
										}
									}
								}
								JOINT LeftHandIndex1
								{
									OFFSET 14.190811 -0.254547 3.840278
									CHANNELS 3 Xrotation Yrotation Zrotation
									JOINT LeftHandIndex2
									{
										OFFSET 3.551727 0.000000 -0.000000
										CHANNELS 3 Xrotation Yrotation Zrotation
										JOINT LeftHandIndex3
										{
											OFFSET 2.894196 0.000000 0.000000
											CHANNELS 3 Xrotation Yrotation Zrotation
											End Site
											{
												OFFSET -1.000603 2.690872 0.366626
											}
										}
									}
								}
								JOINT LeftHandMiddle1
								{
									OFFSET 13.776489 0.000000 0.000000
									CHANNELS 3 Xrotation Yrotation Zrotation
									JOINT LeftHandMiddle2
									{
										OFFSET 3.438232 0.000000 0.000000
										CHANNELS 3 Xrotation Yrotation Zrotation
										JOINT LeftHandMiddle3
										{
											OFFSET 3.691551 0.000000 0.000000
											CHANNELS 3 Xrotation Yrotation Zrotation
											End Site
											{
												OFFSET -1.082298 3.499527 0.457670
											}
										}
									}
								}
								JOINT LeftHandRing1
								{
									OFFSET 13.966164 -0.268127 -3.067488
									CHANNELS 3 Xrotation Yrotation Zrotation
									JOINT LeftHandRing2
									{
										OFFSET 3.162567 0.000000 0.000000
										CHANNELS 3 Xrotation Yrotation Zrotation
										JOINT LeftHandRing3
										{
											OFFSET 3.324348 0.000000 0.000000
											CHANNELS 3 Xrotation Yrotation Zrotation
											End Site
											{
												OFFSET -0.861900 3.184998 0.405154
											}
										}
									}
								}
								JOINT LeftHandPinky1
								{
									OFFSET 13.131393 -0.168503 -5.746925
									CHANNELS 3 Xrotation Yrotation Zrotation
									JOINT LeftHandPinky2
									{
										OFFSET 2.849182 0.000000 0.000000
										CHANNELS 3 Xrotation Yrotation Zrotation
										JOINT LeftHandPinky3
										{
											OFFSET 2.805038 0.000000 0.000000
											CHANNELS 3 Xrotation Yrotation Zrotation
											End Site
											{
												OFFSET -0.882500 2.642609 0.325652
											}
										}
									}
								}
							}
							JOINT Left_Sleeve
							{
								OFFSET 6.592125 -0.646545 0.805568
								CHANNELS 3 Xrotation Yrotation Zrotation
								End Site
								{
									OFFSET -0.000179 20.275787 -0.000000
								}
							}
						}
					}
				}
				JOINT RightShoulder
				{
					OFFSET -5.731700 15.108002 -2.763700
					CHANNELS 3 Xrotation Yrotation Zrotation
					JOINT RightArm
					{
						OFFSET -9.825497 2.506317 -1.597400
						CHANNELS 3 Xrotation Yrotation Zrotation
						JOINT RightForeArm
						{
							OFFSET -21.966242 0.000000 0.000000
							CHANNELS 3 Xrotation Yrotation Zrotation
							JOINT RightHand
							{
								OFFSET -33.879032 0.000000 0.000000
								CHANNELS 3 Xrotation Yrotation Zrotation
								JOINT RightHandThumb1
								{
									OFFSET -6.715286 -2.359680 3.363841
									CHANNELS 3 Xrotation Yrotation Zrotation
									JOINT RightHandThumb2
									{
										OFFSET -2.507072 -1.447464 1.447461
										CHANNELS 3 Xrotation Yrotation Zrotation
										JOINT RightHandThumb3
										{
											OFFSET -2.898338 -1.673355 1.673357
											CHANNELS 3 Xrotation Yrotation Zrotation
											End Site
											{
												OFFSET 0.295959 3.727692 -0.131651
											}
										}
									}
								}
								JOINT RightHandIndex1
								{
									OFFSET -14.190811 -0.254547 3.840278
									CHANNELS 3 Xrotation Yrotation Zrotation
									JOINT RightHandIndex2
									{
										OFFSET -3.551727 0.000000 -0.000000
										CHANNELS 3 Xrotation Yrotation Zrotation
										JOINT RightHandIndex3
										{
											OFFSET -2.894196 0.000000 0.000000
											CHANNELS 3 Xrotation Yrotation Zrotation
											End Site
											{
												OFFSET 1.000603 2.690872 0.366626
											}
										}
									}
								}
								JOINT RightHandMiddle1
								{
									OFFSET -13.776489 0.000000 0.000000
									CHANNELS 3 Xrotation Yrotation Zrotation
									JOINT RightHandMiddle2
									{
										OFFSET -3.438232 0.000000 0.000000
										CHANNELS 3 Xrotation Yrotation Zrotation
										JOINT RightHandMiddle3
										{
											OFFSET -3.691551 0.000000 0.000000
											CHANNELS 3 Xrotation Yrotation Zrotation
											End Site
											{
												OFFSET 1.082298 3.499527 0.457670
											}
										}
									}
								}
								JOINT RightHandRing1
								{
									OFFSET -13.966164 -0.268127 -3.067488
									CHANNELS 3 Xrotation Yrotation Zrotation
									JOINT RightHandRing2
									{
										OFFSET -3.162567 0.000000 0.000000
										CHANNELS 3 Xrotation Yrotation Zrotation
										JOINT RightHandRing3
										{
											OFFSET -3.324348 0.000000 0.000000
											CHANNELS 3 Xrotation Yrotation Zrotation
											End Site
											{
												OFFSET 0.861900 3.184998 0.405154
											}
										}
									}
								}
								JOINT RightHandPinky1
								{
									OFFSET -13.131393 -0.168503 -5.746925
									CHANNELS 3 Xrotation Yrotation Zrotation
									JOINT RightHandPinky2
									{
										OFFSET -2.849182 0.000000 0.000000
										CHANNELS 3 Xrotation Yrotation Zrotation
										JOINT RightHandPinky3
										{
											OFFSET -2.805038 0.000000 0.000000
											CHANNELS 3 Xrotation Yrotation Zrotation
											End Site
											{
												OFFSET 0.882500 2.642609 0.325652
											}
										}
									}
								}
							}
							JOINT Right_Sleeve
							{
								OFFSET -6.592125 -0.646545 0.805568
								CHANNELS 3 Xrotation Yrotation Zrotation
								End Site
								{
									OFFSET 0.000179 20.275787 -0.000000
								}
							}
						}
					}
				}
				JOINT Bind_Right_JacketString
				{
					OFFSET -3.534800 11.969597 7.200700
					CHANNELS 3 Xrotation Yrotation Zrotation
					JOINT Bind_Right_JacketString1
					{
						OFFSET -0.319900 -6.102600 2.794100
						CHANNELS 3 Xrotation Yrotation Zrotation
						End Site
						{
							OFFSET 0.000000 6.719452 0.000000
						}
					}
				}
				JOINT Bind_Left_JacketString
				{
					OFFSET 2.904800 11.969597 7.200700
					CHANNELS 3 Xrotation Yrotation Zrotation
					JOINT Bind_Left_JacketString1
					{
						OFFSET 0.364800 -5.904503 3.186800
						CHANNELS 3 Xrotation Yrotation Zrotation
						End Site
						{
							OFFSET 0.000000 6.719513 0.000000
						}
					}
				}
				JOINT HairE
				{
					OFFSET 5.915200 17.612701 -11.592200
					CHANNELS 3 Xrotation Yrotation Zrotation
					JOINT HairE1
					{
						OFFSET 0.289200 -7.171898 -1.284500
						CHANNELS 3 Xrotation Yrotation Zrotation
						End Site
						{
							OFFSET 0.000000 7.291756 0.000000
						}
					}
				}
				JOINT HairF
				{
					OFFSET -0.864800 17.612701 -11.592200
					CHANNELS 3 Xrotation Yrotation Zrotation
					JOINT HairF1
					{
						OFFSET 0.000000 -14.087097 -2.127501
						CHANNELS 3 Xrotation Yrotation Zrotation
						End Site
						{
							OFFSET 0.000000 14.246841 0.000000
						}
					}
				}
				JOINT HairG
				{
					OFFSET -8.087700 17.612701 -11.592200
					CHANNELS 3 Xrotation Yrotation Zrotation
					JOINT HairG1
					{
						OFFSET -0.293600 -6.081398 -0.910100
						CHANNELS 3 Xrotation Yrotation Zrotation
						End Site
						{
							OFFSET 0.000000 6.156120 0.000000
						}
					}
				}
			}
		}
	}
	JOINT Pouch
	{
		OFFSET 0.000000 4.394501 10.847300
		CHANNELS 3 Xrotation Yrotation Zrotation
		End Site
		{
			OFFSET 0.000000 21.880577 0.000000
		}
	}
	JOINT Bag
	{
		OFFSET -13.229000 4.813004 -0.593300
		CHANNELS 3 Xrotation Yrotation Zrotation
		End Site
		{
			OFFSET 0.000000 21.880577 0.000000
		}
	}
	JOINT OccupyGuyFacialAnim_Joint
	{
		OFFSET 1.000000 -70.206398 -1.655000
		CHANNELS 3 Xrotation Yrotation Zrotation
		End Site
		{
			OFFSET 0.000000 21.880577 0.000000
		}
	}
}
MOTION
Frames: 5
Frame Time: 0.016667
-0.863847 63.626152 0.767578 3.013709 -58.244582 6.565743 -0.000000 -0.000000 0.000000 -32.631198 11.146649 23.555127 43.784699 -8.044058 -9.928247 -13.051216 -2.688593 -7.268575 0.000000 0.000002 0.000000 0.000001 0.000003 0.000001 -30.698794 -9.740770 -24.750181 48.833844 2.532475 -7.653561 -22.404274 2.481597 19.801603 0.000000 -0.000000 -0.000000 -0.000001 -0.000001 0.000000 11.191582 0.099382 -2.783212 8.434587 0.027706 -5.592325 8.457060 0.027859 -5.591870 -21.555645 25.063369 12.062567 -0.294040 25.465752 -3.208974 -0.000000 -0.000000 0.000001 -0.000000 -0.000000 0.000001 -0.000000 -0.000000 0.000001 -0.000000 -0.000000 -0.000000 -0.000000 -0.000000 -0.000000 -0.000000 -0.000000 -0.000000 -0.000000 -0.000000 -0.000000 -0.000000 -0.000000 0.000001 -0.000000 -0.000000 0.000001 -6.221672 -11.503858 -4.023830 -23.062173 9.568550 -36.639600 0.046107 -43.169135 -0.011174 22.743762 -5.685875 15.979282 -1.064235 -7.954908 8.490087 2.373408 19.986098 -2.038342 0.000000 -0.000000 0.000001 13.340875 -1.006658 10.682263 -0.167587 0.303379 -31.105624 0.000000 -0.000003 -0.000004 8.495441 -0.329564 -0.915306 0.231515 0.661198 -29.901865 -0.000002 -0.000000 -0.000001 6.111749 3.150908 -16.210961 0.047070 0.322399 -30.125485 -0.000001 0.000000 -0.000005 -5.636019 7.709863 -13.878617 0.224385 0.276613 -46.588379 -0.000000 -0.000002 0.000001 0.000001 0.000000 -0.000004 -5.488235 10.658250 2.466542 -41.473797 -26.755565 30.079088 24.955513 111.862974 -23.308514 -8.702493 12.423052 -9.801971 0.265013 10.061110 -10.888493 1.383810 -17.412864 3.016283 -0.000001 -0.000003 0.000002 19.443604 11.174440 -13.340189 -0.118640 -0.322726 18.035596 0.000000 0.000002 -0.000001 4.320474 2.436956 -4.811727 0.349142 -0.461247 26.890328 0.000000 0.000004 -0.000004 -7.005637 -10.695120 5.719842 0.111869 -0.089232 26.155888 0.000001 -0.000003 -0.000003 -19.433502 -20.238206 5.987876 0.223755 -0.085823 36.844564 -0.000002 0.000005 0.000003 0.000001 0.000003 -0.000001 -0.000000 0.000003 -0.000002 0.000001 0.000003 -0.000002 -0.000000 0.000003 -0.000000 -0.000000 0.000003 -0.000000 -0.000000 0.000003 -0.000002 0.000001 0.000003 -0.000002 -0.000000 0.000003 -0.000000 -0.000000 0.000003 -0.000000 -0.000000 0.000003 -0.000002 0.000001 0.000003 -0.000002 -0.000000 -0.000000 0.000000 -0.000000 -0.000000 0.000000 -0.000000 -0.000000 0.000000 
-0.876624 63.627983 0.804807 3.079252 -58.287482 6.598338 0.000000 0.000001 -0.000000 -32.683162 11.071370 23.526332 43.945225 -7.955650 -9.880680 -13.094873 -2.676654 -7.284410 0.000000 -0.000002 0.000000 -0.000003 -0.000003 -0.000001 -30.658294 -9.625671 -24.641605 48.810779 2.411428 -7.720642 -22.356196 2.456120 19.895194 0.000000 0.000002 0.000000 -0.000002 -0.000002 -0.000000 11.114399 0.115554 -2.759123 8.281115 0.065576 -5.543482 8.303565 0.065715 -5.543008 -21.313518 24.821461 11.931890 -0.501502 25.223305 -3.073467 0.000001 0.000000 -0.000001 0.000001 0.000000 -0.000001 0.000001 0.000000 -0.000001 0.000001 0.000000 -0.000001 0.000001 -0.000000 -0.000000 0.000001 0.000000 -0.000001 0.000001 -0.000000 -0.000000 0.000001 0.000000 -0.000001 0.000001 0.000000 -0.000001 -5.888015 -11.348870 -4.111613 -23.088841 9.805528 -36.732074 -0.223622 -43.320359 -0.178098 22.774832 -5.786705 15.762764 -1.013338 -7.979046 8.385272 2.373242 19.985729 -2.038475 -0.000000 -0.000000 -0.000001 13.392779 -0.857335 10.369726 -0.168843 0.304171 -31.279148 0.000001 -0.000001 -0.000004 8.501717 -0.177926 -1.121780 0.233289 0.661434 -30.053645 0.000001 0.000001 -0.000001 6.115920 3.344593 -16.345857 0.048439 0.323118 -30.253039 -0.000002 0.000000 -0.000004 -5.669042 7.954089 -13.849587 0.224918 0.276682 -46.648765 -0.000001 -0.000004 0.000001 0.000001 -0.000000 0.000001 -5.146261 10.690686 2.467583 -41.573746 -27.076227 29.890055 27.927812 112.638357 -26.280019 -8.524181 12.683905 -9.630376 0.058350 10.763320 -10.139029 1.383868 -17.413053 3.016230 -0.000001 0.000004 0.000000 19.385122 11.008827 -11.664730 -0.125430 -0.326328 19.069082 0.000001 0.000000 0.000002 4.347776 1.811576 -3.663104 0.356057 -0.461062 27.691718 0.000002 0.000003 0.000003 -6.837582 -11.512230 6.465784 0.115972 -0.091578 26.770257 0.000003 0.000001 -0.000002 -19.227276 -20.531333 6.567939 0.226176 -0.086347 37.287328 0.000004 -0.000002 0.000000 0.000001 0.000002 0.000002 -0.000000 -0.000003 0.000001 0.000001 -0.000001 0.000001 -0.000000 -0.000003 0.000003 -0.000000 -0.000003 0.000003 -0.000000 -0.000003 0.000001 0.000001 -0.000001 0.000001 -0.000000 -0.000003 0.000003 -0.000000 -0.000003 0.000003 -0.000000 -0.000003 0.000001 0.000001 -0.000001 0.000001 0.000000 0.000001 -0.000000 0.000000 0.000001 -0.000000 0.000000 0.000001 -0.000000 
-0.889761 63.623543 0.842258 3.144856 -58.330300 6.631150 -0.000000 -0.000000 0.000000 -32.744057 10.993835 23.498195 44.122325 -7.863021 -9.835578 -13.142904 -2.671733 -7.268856 -0.000000 -0.000003 0.000000 0.000002 -0.000001 0.000001 -30.627695 -9.507095 -24.531355 48.809304 2.281683 -7.791166 -22.315060 2.437209 19.965476 -0.000000 0.000001 -0.000000 -0.000002 -0.000000 0.000000 11.105221 0.128799 -2.745172 8.263421 0.094351 -5.514621 8.285901 0.094479 -5.514150 -21.429177 24.538177 11.838498 -0.484136 24.969442 -3.032913 -0.000000 0.000000 -0.000000 -0.000000 0.000000 -0.000000 -0.000000 0.000000 0.000000 -0.000000 0.000000 -0.000001 -0.000000 0.000001 -0.000001 -0.000000 0.000000 -0.000001 -0.000000 0.000001 -0.000001 -0.000000 0.000000 -0.000000 -0.000000 0.000000 -0.000000 -5.880226 -11.203441 -4.136706 -23.070916 10.188976 -36.902542 -0.778796 -43.644014 -0.618951 22.885922 -5.874781 15.640297 -0.936043 -7.901278 8.281057 2.381452 20.006176 -2.031158 -0.000000 -0.000000 0.000001 13.380399 -0.903454 10.415435 -0.168403 0.303858 -31.216277 -0.000000 0.000003 0.000000 8.500999 -0.157125 -1.020046 0.232480 0.661347 -29.983547 0.000000 0.000000 0.000001 6.103013 3.435148 -16.138185 0.047770 0.322754 -30.188852 -0.000002 0.000003 0.000001 -5.677998 8.064688 -13.509517 0.223984 0.276465 -46.546165 -0.000001 0.000000 0.000001 0.000001 -0.000000 0.000002 -5.152145 10.691569 2.515989 -41.675338 -27.395467 29.700354 30.754914 113.473819 -29.096353 -7.964713 12.641062 -9.574787 -0.272424 11.449473 -9.779562 1.392599 -17.434087 3.008415 -0.000001 -0.000003 0.000001 19.283205 11.017635 -10.724537 -0.128896 -0.328165 19.592143 -0.000001 -0.000001 -0.000002 4.335200 1.528097 -2.596403 0.361453 -0.460793 28.315642 0.000000 -0.000000 -0.000003 -6.574470 -12.132968 7.760421 0.121328 -0.094760 27.577526 0.000001 0.000001 0.000001 -18.816288 -22.102986 7.642797 0.231383 -0.087299 38.248875 0.000002 0.000001 0.000001 0.000000 0.000003 0.000003 0.000001 0.000001 -0.000000 0.000001 0.000002 -0.000002 0.000001 0.000001 -0.000001 0.000001 0.000001 -0.000001 0.000001 0.000001 -0.000000 0.000001 0.000002 -0.000002 0.000001 0.000001 -0.000001 0.000001 0.000001 -0.000001 0.000001 0.000001 -0.000000 0.000001 0.000002 -0.000002 -0.000000 -0.000000 0.000000 -0.000000 -0.000000 0.000000 -0.000000 -0.000000 0.000000 
-0.900691 63.605652 0.885161 3.252337 -58.367286 6.709042 0.000000 -0.000002 0.000000 -32.859337 10.880148 23.446561 44.382422 -7.749793 -9.777100 -13.213593 -2.661983 -7.251326 0.000000 -0.000002 -0.000000 0.000000 0.000001 0.000001 -30.644733 -9.340217 -24.424106 48.875778 2.125657 -7.872713 -22.280707 2.411503 20.041191 0.000000 -0.000003 0.000000 0.000002 -0.000001 -0.000000 11.091550 0.145712 -2.729852 8.236897 0.130304 -5.482832 8.259356 0.130469 -5.482375 -21.566063 24.146874 11.698336 -0.461436 24.621500 -2.974629 -0.000000 -0.000000 -0.000000 -0.000000 -0.000000 -0.000000 -0.000000 -0.000000 0.000000 -0.000000 -0.000000 -0.000001 0.000000 -0.000000 -0.000000 -0.000000 -0.000000 -0.000001 0.000000 -0.000000 -0.000000 -0.000000 -0.000000 -0.000000 -0.000000 -0.000000 -0.000000 -5.870541 -11.061405 -4.171697 -22.987239 10.659081 -37.048435 -1.551476 -44.072093 -1.371592 23.004909 -5.957702 15.638845 -0.867451 -7.784727 8.163934 2.371683 19.981937 -2.039805 0.000001 0.000001 -0.000001 13.356446 -0.993989 10.520304 -0.167653 0.303497 -31.113199 -0.000001 0.000002 0.000000 8.488154 -0.167007 -0.852472 0.231254 0.661091 -29.882931 -0.000001 0.000001 -0.000003 6.084688 3.499121 -15.846327 0.046802 0.322318 -30.097420 -0.000001 0.000001 -0.000001 -5.685246 8.137439 -13.084716 0.222767 0.276393 -46.402376 0.000001 -0.000003 0.000001 0.000000 0.000002 -0.000001 -5.178394 10.652658 2.668578 -41.781992 -27.790450 29.400747 35.112736 114.823430 -33.451398 -7.092256 12.745485 -9.489322 -0.610321 12.109769 -9.454125 1.382303 -17.409257 3.017628 0.000001 -0.000002 -0.000002 19.197053 10.951338 -9.698041 -0.132388 -0.330074 20.134781 0.000002 -0.000001 -0.000002 4.354852 1.175969 -1.362048 0.367468 -0.460515 29.018994 -0.000000 -0.000001 0.000003 -6.208862 -12.853177 9.348214 0.127958 -0.098457 28.547259 -0.000001 0.000001 0.000001 -18.118837 -23.348831 9.489319 0.237882 -0.088349 39.442450 -0.000001 0.000003 -0.000001 0.000002 0.000000 0.000005 0.000001 -0.000000 -0.000001 0.000001 0.000002 -0.000001 0.000001 -0.000000 -0.000001 0.000001 -0.000000 -0.000001 0.000001 -0.000000 -0.000001 0.000001 0.000002 -0.000001 0.000001 -0.000000 -0.000001 0.000001 -0.000000 -0.000001 0.000001 -0.000000 -0.000001 0.000001 0.000002 -0.000001 0.000000 -0.000002 0.000000 0.000000 -0.000002 0.000000 0.000000 -0.000002 0.000000 
-0.910019 63.578079 0.932619 3.388438 -58.404183 6.819979 -0.000000 0.000001 0.000000 -33.015075 10.738046 23.373336 44.710999 -7.612532 -9.708594 -13.297653 -2.649188 -7.229789 -0.000000 0.000001 -0.000000 -0.000003 0.000000 -0.000000 -30.698651 -9.129664 -24.314302 48.997824 1.944205 -7.965434 -22.244762 2.381510 20.118397 0.000000 -0.000002 -0.000000 0.000003 0.000000 -0.000000 11.074592 0.166228 -2.713192 8.204048 0.173841 -5.448620 8.226519 0.173977 -5.448155 -21.737115 23.674407 11.523827 -0.392239 24.201023 -2.926328 -0.000000 0.000000 0.000000 -0.000000 0.000000 0.000000 -0.000000 0.000000 0.000001 -0.000000 0.000000 -0.000000 0.000000 -0.000000 -0.000000 -0.000000 0.000000 -0.000000 0.000000 -0.000000 -0.000000 -0.000000 0.000000 0.000000 -0.000000 0.000000 0.000000 -5.861940 -10.946071 -4.243525 -22.790231 11.203505 -37.079410 -2.568650 -44.597471 -2.588024 23.074638 -6.037695 15.822746 -0.793064 -7.630838 8.042170 2.357185 19.945570 -2.052796 0.000000 -0.000000 0.000000 13.321670 -1.130673 10.678592 -0.166631 0.302853 -30.963044 0.000001 0.000001 -0.000003 8.470860 -0.209047 -0.621959 0.229564 0.660877 -29.743930 0.000002 -0.000000 -0.000001 6.061152 3.534671 -15.469118 0.045451 0.321645 -29.971003 -0.000001 0.000001 -0.000001 -5.688049 8.169783 -12.574628 0.221067 0.276208 -46.207896 -0.000001 -0.000001 0.000001 -0.000000 0.000001 -0.000001 -5.219775 10.572305 2.900656 -41.870689 -28.266530 29.056058 41.231741 117.103074 -39.500330 -5.303522 13.017120 -9.364775 -0.958388 12.748958 -9.156991 1.366565 -17.371386 3.031709 0.000001 -0.000002 0.000000 19.126152 10.844613 -8.606080 -0.124158 -0.327523 20.687137 0.000000 0.000001 -0.000005 4.409007 0.792122 0.031968 0.364129 -0.465876 29.789511 0.000002 -0.000003 -0.000001 -5.731545 -13.628130 11.226352 0.115044 -0.114690 29.666500 0.000001 0.000000 -0.000003 -17.191284 -24.730064 11.784477 0.245610 -0.089459 40.852413 0.000002 0.000001 0.000004 0.000002 -0.000004 0.000001 0.000001 0.000002 -0.000002 0.000001 0.000000 0.000001 0.000001 0.000002 -0.000000 0.000001 0.000002 -0.000000 0.000001 0.000002 -0.000002 0.000001 0.000000 0.000001 0.000001 0.000002 -0.000000 0.000001 0.000002 -0.000000 0.000001 0.000002 -0.000002 0.000001 0.000000 0.000001 -0.000000 0.000001 0.000000 -0.000000 0.000001 0.000000 -0.000000 0.000001 0.000000 
